<?xml version="1.0" encoding="utf-8"?>
<!-- Generator: Adobe Illustrator 24.0.1, SVG Export Plug-In . SVG Version: 6.00 Build 0)  -->
<svg version="1.1" id="Layer_1" xmlns="http://www.w3.org/2000/svg" xmlns:xlink="http://www.w3.org/1999/xlink" x="0px" y="0px"
	 viewBox="0 0 1500 1500" style="enable-background:new 0 0 1500 1500;" xml:space="preserve">
<style type="text/css">
	.st0{fill:#020202;}
	.st1{display:none;}
	.st2{font-family:'Roboto-Regular';}
	.st3{font-size:282.6566px;}
</style>
<polyline class="st0" points="1462.5,0 1500,1500 573.9,1500 647.7,1455 1421.9,1399.4 "/>
<polyline class="st0" points="370.3,1434.2 83,1414.3 40.3,0 0,1500 373.1,1500 "/>
<path class="st0" d="M1216.1,1428.3c130.2-412.5-164.3-716.2-164.3-716.2c51.9,264.2-85,381.2-143.4,418.1
	c-13.9,8.8-32.3,3.5-39.3-11.6c-67.5-144.9,58.3-358.7,70-391.3c105-293-421.3-463.7-421.3-463.7c282,201.6,80.8,342.7,43.8,371.3
	c-4.2,3.2-8.8,6.5-13.5,10.1c-547,414.8-174.9,855-174.9,855H428c0,0-74.8-266.8,144.3-465.3c0,0-68.5,271.8-0.4,465.3l604-8.7
	C1176,1491.3,1202.7,1464.6,1216.1,1428.3z"/>
<text transform="matrix(1 0 0 1 350.0586 1271.2305)" class="st1 st2 st3">Firefy</text>
</svg>
