<?xml version="1.0" encoding="utf-8"?>
<!-- Generator: Adobe Illustrator 24.0.1, SVG Export Plug-In . SVG Version: 6.00 Build 0)  -->
<svg version="1.1" xmlns="http://www.w3.org/2000/svg" xmlns:xlink="http://www.w3.org/1999/xlink" x="0px" y="0px"
	 viewBox="0 0 1087.8 1500" style="enable-background:new 0 0 1087.8 1500;" xml:space="preserve">
<style type="text/css">
	.st0{display:none;}
	.st1{display:inline;fill:#828282;}
	.st2{fill:url(#SVGID_1_);}
	.st3{opacity:0.31;}
</style>
<g id="Layer_3" class="st0">
	<rect x="-277.1" y="-71" class="st1" width="1668" height="1668"/>
</g>
<g id="Layer_2">
</g>
<g id="Layer_1">
	<linearGradient id="SVGID_1_" gradientUnits="userSpaceOnUse" x1="240.0886" y1="1427.296" x2="888.5639" y2="304.1038">
		<stop  offset="1.385225e-07" style="stop-color:#3A0043"/>
		<stop  offset="1" style="stop-color:#F40049"/>
	</linearGradient>
	<path class="st2" d="M351,857.7c0,0-92.8,220-10,410.3c24.8,56.9,142.3,238,354.8,231.9c269.9-7.9,353.7-258.6,359.8-278.5
		C1192,782.2,850.4,500.1,850.4,500.1c63.3,279.1-78.5,407.6-139.4,448.6c-14,4.2-34.2,4.7-42.1-11.1
		c-76.3-151.9,52.6-382.4,62.2-417.9C813.5,213.7,357.8,0,357.8,0c305.9,205.4-39.8,440.4-44.7,444.4
		c-568.3,457.7-216.7,925.2-75.6,979.5C237.4,1423.9,47.7,1116.8,351,857.7z"/>
</g>
<g id="Layer_4" class="st3">
</g>
</svg>
