<svg width="300" height="197" viewBox="0 0 300 197" fill="none" xmlns="http://www.w3.org/2000/svg">
<g clip-path="url(#clip0)">
<path d="M206.904 0.117676H0.0883789V132.981H206.904V0.117676Z" fill="#171827"/>
<path d="M200.99 16.782H6.00195V125.12H200.99V16.782Z" fill="#0E0F20"/>
<path d="M206.815 0H0V8.81342H206.815V0Z" fill="#6C63FF"/>
<path d="M6.52935 6.13944C7.42872 6.13944 8.15781 5.40809 8.15781 4.50594C8.15781 3.60378 7.42872 2.87244 6.52935 2.87244C5.62997 2.87244 4.90088 3.60378 4.90088 4.50594C4.90088 5.40809 5.62997 6.13944 6.52935 6.13944Z" fill="white"/>
<path d="M12.7105 6.13944C13.6099 6.13944 14.339 5.40809 14.339 4.50594C14.339 3.60378 13.6099 2.87244 12.7105 2.87244C11.8111 2.87244 11.082 3.60378 11.082 4.50594C11.082 5.40809 11.8111 6.13944 12.7105 6.13944Z" fill="white"/>
<path d="M18.8917 6.13944C19.791 6.13944 20.5201 5.40809 20.5201 4.50594C20.5201 3.60378 19.791 2.87244 18.8917 2.87244C17.9923 2.87244 17.2632 3.60378 17.2632 4.50594C17.2632 5.40809 17.9923 6.13944 18.8917 6.13944Z" fill="white"/>
<path d="M132.94 33.4152H22.5918V95.6781H132.94V33.4152Z" fill="#6C63FF"/>
<path d="M190.36 33.4152H148.338V57.1257H190.36V33.4152Z" fill="#9FA9FF"/>
<path d="M190.36 64.6271H148.338V88.3377H190.36V64.6271Z" fill="#9FA9FF"/>
<path d="M190.36 95.8389H148.338V119.549H190.36V95.8389Z" fill="#9FA9FF"/>
<path d="M98.6168 106.136H22.5918V111.284H98.6168V106.136Z" fill="#9FA9FF"/>
<path d="M92.2013 64.5467L68.1426 50.6135V78.4796L92.2013 64.5467L68.1426 50.6135V78.4796L92.2013 64.5467Z" fill="white"/>
<path d="M247.068 183.365L248.056 188.322L243.115 189.313L243.856 183.117L247.068 183.365Z" fill="#FFB8B8"/>
<path d="M267.297 182.463L266.177 188.076L261.574 188.187L263.044 181.34L267.297 182.463Z" fill="#FFB8B8"/>
<path d="M274.635 124.798L275.918 133.486C275.918 133.486 274.635 152.793 274.314 153.758C273.993 154.723 273.031 159.55 273.031 159.55L267.577 182.717C267.577 182.717 262.857 183.361 261.894 180.787L262.124 166.951L261.803 151.184L257.954 133.165L251.218 157.619C251.218 157.619 250.897 165.664 249.935 168.559C248.972 171.455 247.689 184.005 247.689 184.005C247.689 184.005 243.61 184.97 243.289 184.005C242.968 183.039 241.273 160.193 241.273 156.654C241.273 153.114 239.388 119.177 239.388 119.177L274.635 124.798Z" fill="#2F2E41"/>
<path d="M263.052 187.756C263.581 187.865 264.126 187.865 264.655 187.756C265.256 187.555 264.655 186.349 264.655 186.349H266.858C266.858 186.349 269.262 191.775 270.264 192.177C271.266 192.579 274.471 197 270.665 197C268.316 196.97 266.024 196.273 264.054 194.99C264.054 194.99 263.653 193.182 261.85 192.981C260.047 192.78 258.845 190.569 258.845 190.569L260.802 186.945C260.857 186.843 260.939 186.758 261.039 186.698C261.139 186.638 261.253 186.607 261.369 186.607C261.485 186.606 261.599 186.638 261.7 186.697C261.8 186.756 261.882 186.841 261.938 186.943C262.21 187.425 262.588 187.849 263.052 187.756Z" fill="#2F2E41"/>
<path d="M246.284 187.133C246.284 187.133 245.838 188.03 245.391 187.582C245.017 187.106 244.716 186.577 244.497 186.013C244.497 186.013 243.156 185.34 242.933 186.013C242.71 186.685 241.816 190.271 241.369 190.719C240.922 191.167 236.23 195.874 240.922 196.77C245.614 197.667 246.508 195.65 246.508 195.65C246.508 195.65 245.837 194.529 247.178 194.081C248.519 193.633 248.742 192.064 248.742 192.064L248.069 186.999C248.054 186.891 248.008 186.789 247.935 186.708C247.863 186.627 247.769 186.569 247.663 186.541C247.558 186.514 247.447 186.519 247.345 186.555C247.242 186.591 247.153 186.657 247.088 186.745C246.829 187.083 246.54 187.305 246.284 187.133Z" fill="#2F2E41"/>
<path d="M282.013 102.274L282.975 119.007C282.975 119.007 287.466 129.625 281.371 129.303C275.276 128.982 279.125 118.685 279.125 118.685L273.158 103.752L282.013 102.274Z" fill="#FFB8B8"/>
<path d="M232.612 97.4478L231.65 114.18C231.65 114.18 227.159 124.798 233.254 124.477C239.349 124.155 235.499 113.858 235.499 113.858L241.467 98.9249L232.612 97.4478Z" fill="#FFB8B8"/>
<path d="M258.275 61.0875C262.881 61.0875 266.615 57.3419 266.615 52.7214C266.615 48.101 262.881 44.3553 258.275 44.3553C253.669 44.3553 249.935 48.101 249.935 52.7214C249.935 57.3419 253.669 61.0875 258.275 61.0875Z" fill="#FFB8B8"/>
<path d="M264.851 56.1001C264.851 56.1001 262.605 65.1097 267.096 67.3621C271.587 69.6145 252.982 72.8322 251.699 67.3621L252.34 64.7879C252.34 64.7879 254.907 61.5702 254.265 58.6743L264.851 56.1001Z" fill="#FFB8B8"/>
<path d="M259.878 67.5229C259.878 67.5229 254.343 68.0414 252.62 64.4036C252.62 64.4036 239.669 65.2705 236.782 77.1761C240.133 77.2722 244.289 115.517 238.798 119.328C234.34 122.422 246.49 127.188 263.407 127.373L276.238 126.729C273.846 124.662 268.121 97.7544 271.747 98.0913C271.747 98.0913 281.371 82.968 280.408 80.7156C279.446 78.4632 277.905 69.582 265.523 65.9783C265.523 65.9783 265.332 67.8447 259.878 67.5229Z" fill="#6C63FF"/>
<path d="M276.239 75.2455L280.409 80.7156C280.409 80.7156 284.579 103.561 283.296 103.883C282.013 104.205 274.314 106.779 273.031 105.814C271.748 104.849 265.974 85.864 265.974 85.864L276.239 75.2455Z" fill="#6C63FF"/>
<path d="M242.236 73.6367L236.783 77.1762C236.783 77.1762 228.763 99.7002 231.009 100.666C233.254 101.631 245.764 100.987 245.764 100.987L242.236 73.6367Z" fill="#6C63FF"/>
<path d="M267.391 45.2344C267.391 45.2344 264.503 38.9559 258.966 40.4048C253.429 41.8537 250.299 44.027 250.058 46.2004C249.818 48.3737 250.179 51.6337 250.179 51.6337C250.179 51.6337 250.781 47.1663 254.632 48.1322C258.484 49.0981 264.503 48.3737 264.503 48.3737L265.465 57.067C265.465 57.067 266.549 55.4974 267.752 56.4633C268.956 57.4292 271.243 47.1663 267.391 45.2344Z" fill="#2F2E41"/>
<path d="M299.878 196.822H217.2V196.144H300L299.878 196.822Z" fill="#3F3D56"/>
</g>
<defs>
<clipPath id="clip0">
<rect width="300" height="197" fill="white"/>
</clipPath>
</defs>
</svg>
