<svg width="205" height="118" viewBox="0 0 205 118" fill="none" xmlns="http://www.w3.org/2000/svg">
<g clip-path="url(#clip0)">
<path d="M3.53543 45.3154H70.9613C71.8391 45.3154 72.681 45.6635 73.3017 46.283C73.9224 46.9026 74.2711 47.7429 74.2711 48.6191V53.8666H0.225586V48.6191C0.225587 47.7429 0.574302 46.9026 1.19502 46.283C1.81574 45.6635 2.65761 45.3154 3.53543 45.3154V45.3154Z" fill="#3F3D56"/>
<path d="M69.6817 44.7045C69.3485 44.7059 69.0179 44.7621 68.7031 44.8708C68.5951 44.4371 68.3317 44.0578 67.9627 43.8047C67.5938 43.5515 67.1447 43.4419 66.7003 43.4966C66.256 43.5513 65.847 43.7665 65.5507 44.1016C65.2544 44.4366 65.0913 44.8684 65.0921 45.3153C65.0921 45.3244 65.0944 45.3329 65.0945 45.342C64.8651 45.3637 64.6387 45.4105 64.4194 45.4816C64.3572 45.235 64.2445 45.0039 64.0883 44.803C63.9321 44.6021 63.7358 44.4357 63.5119 44.3143C64.1001 43.9898 64.5653 43.4815 64.8362 42.8676C66.3334 42.8433 67.5399 41.763 67.5399 40.4289C67.5399 39.0795 66.307 37.9857 64.7861 37.9857C64.453 37.9872 64.1224 38.0434 63.8075 38.152C63.751 37.9118 63.6463 37.6855 63.4998 37.4868C63.3533 37.288 63.1679 37.121 62.9549 36.9958C62.7419 36.8705 62.5057 36.7896 62.2605 36.758C62.0153 36.7264 61.7663 36.7447 61.5284 36.8118C61.2905 36.879 61.0687 36.9935 60.8764 37.1486C60.684 37.3036 60.5252 37.4959 60.4094 37.7139C60.2936 37.932 60.2233 38.1711 60.2027 38.417C60.1821 38.6629 60.2116 38.9104 60.2894 39.1446C60.2163 39.1954 60.148 39.2525 60.0796 39.3093C59.7335 39.0119 59.2839 38.8626 58.8283 38.8935C58.5929 38.219 58.1273 37.6486 57.5129 37.2823C56.8986 36.916 56.1747 36.7772 55.4681 36.8902C54.7615 37.0031 54.1172 37.3606 53.6482 37.9001C53.1791 38.4395 52.9152 39.1265 52.9027 39.8407C52.6572 39.8601 52.4147 39.9083 52.1805 39.9844C52.1542 39.8811 52.1189 39.7802 52.075 39.683C52.3165 39.4702 52.5107 39.2092 52.6447 38.9169C52.7788 38.6245 52.8498 38.3072 52.8532 37.9857C52.8532 36.6364 51.6203 35.5425 50.0994 35.5425C49.7663 35.544 49.4356 35.6002 49.1208 35.7088C49.0643 35.4686 48.9596 35.2423 48.8131 35.0436C48.6665 34.8449 48.4812 34.6778 48.2682 34.5526C48.0552 34.4273 47.819 34.3465 47.5738 34.3149C47.3286 34.2832 47.0795 34.3015 46.8417 34.3687C46.6038 34.4358 46.382 34.5503 46.1896 34.7054C45.9973 34.8604 45.8385 35.0527 45.7227 35.2708C45.6069 35.4888 45.5366 35.7279 45.516 35.9738C45.4953 36.2197 45.5249 36.4672 45.6027 36.7014C45.2174 36.9685 44.8989 37.3207 44.6721 37.7305C44.4453 38.1404 44.3162 38.597 44.2948 39.0647C44.2689 39.0877 44.2393 39.1062 44.2147 39.1306C44.2605 38.9562 44.2844 38.7768 44.2859 38.5965C44.2859 37.2472 43.053 36.1533 41.5321 36.1533C41.199 36.1548 40.8684 36.211 40.5535 36.3196C40.497 36.0794 40.3924 35.8531 40.2458 35.6544C40.0993 35.4557 39.9139 35.2886 39.7009 35.1634C39.4879 35.0381 39.2517 34.9573 39.0065 34.9256C38.7614 34.894 38.5123 34.9123 38.2744 34.9795C38.0365 35.0466 37.8147 35.1611 37.6224 35.3162C37.4301 35.4712 37.2712 35.6635 37.1554 35.8816C37.0397 36.0996 36.9693 36.3387 36.9487 36.5846C36.9281 36.8305 36.9576 37.078 37.0355 37.3122C36.6292 37.5924 36.2972 37.9668 36.0678 38.4033C35.8385 38.8397 35.7187 39.3252 35.7187 39.8181C35.7187 40.311 35.8385 40.7965 36.0678 41.2329C36.2972 41.6694 36.6292 42.0438 37.0355 42.324C36.9116 42.6789 36.9116 43.0652 37.0355 43.4202C36.7288 43.6337 36.4636 43.9011 36.2526 44.2092C36.1393 43.7989 35.8856 43.4413 35.5356 43.1982C35.1856 42.9552 34.7614 42.8422 34.3366 42.8789C33.9119 42.9155 33.5134 43.0995 33.2104 43.3988C32.9073 43.6982 32.7189 44.094 32.6778 44.5176C32.4325 44.3741 32.1674 44.2672 31.8911 44.2003C32.3868 43.8737 32.7771 43.4108 33.015 42.8676C34.5122 42.8433 35.7186 41.763 35.7186 40.4289C35.7186 39.0795 34.4858 37.9857 32.9649 37.9857C32.6318 37.9872 32.3011 38.0434 31.9863 38.152C31.9298 37.9118 31.8251 37.6855 31.6786 37.4868C31.532 37.288 31.3467 37.121 31.1337 36.9958C30.9207 36.8705 30.6845 36.7896 30.4393 36.758C30.1941 36.7264 29.945 36.7447 29.7071 36.8118C29.4693 36.879 29.2475 36.9935 29.0551 37.1485C28.8628 37.3036 28.704 37.4959 28.5882 37.7139C28.4724 37.932 28.4021 38.1711 28.3815 38.417C28.3608 38.6629 28.3903 38.9104 28.4682 39.1446C28.429 39.1719 28.3936 39.2039 28.3557 39.2329C28.2602 39.224 28.1674 39.2073 28.0693 39.2073C27.7362 39.2088 27.4056 39.265 27.0907 39.3736C27.0791 39.3275 27.0601 39.2848 27.0451 39.2401C27.1044 38.9682 27.0997 38.6863 27.0313 38.4165C26.963 38.1467 26.8329 37.8964 26.6513 37.6853C26.4698 37.4741 26.2416 37.3079 25.9848 37.1996C25.7279 37.0913 25.4495 37.0439 25.1712 37.0611C25.0119 36.6182 24.752 36.2181 24.412 35.8921C24.072 35.566 23.661 35.3229 23.2113 35.1817C22.7615 35.0406 22.2851 35.0052 21.8193 35.0783C21.3536 35.1514 20.9111 35.331 20.5264 35.6032C20.1418 35.8754 19.8254 36.2327 19.6021 36.6471C19.3788 37.0616 19.2545 37.522 19.2391 37.9923C19.2237 38.4627 19.3174 38.9302 19.5131 39.3584C19.7088 39.7866 20.001 40.1638 20.367 40.4605C20.1564 40.4846 19.9488 40.5297 19.7473 40.5952C19.675 40.2974 19.5283 40.0227 19.321 39.7967C19.1136 39.5708 18.8523 39.4008 18.5615 39.3028C18.2706 39.2047 17.9596 39.1817 17.6575 39.2359C17.3553 39.2901 17.0718 39.4198 16.8333 39.6128C16.5606 39.2895 16.2194 39.0306 15.8343 38.8549C15.4492 38.6791 15.0299 38.5909 14.6065 38.5965C14.2733 38.598 13.9427 38.6542 13.6279 38.7628C13.5714 38.5226 13.4667 38.2963 13.3202 38.0976C13.1736 37.8988 12.9883 37.7318 12.7753 37.6066C12.5623 37.4813 12.326 37.4004 12.0809 37.3688C11.8357 37.3372 11.5866 37.3555 11.3487 37.4226C11.1108 37.4898 10.889 37.6043 10.6967 37.7594C10.5044 37.9144 10.3456 38.1067 10.2298 38.3247C10.114 38.5427 10.0437 38.7819 10.023 39.0278C10.0024 39.2737 10.0319 39.5212 10.1098 39.7554C9.70365 40.0357 9.37166 40.4101 9.14231 40.8465C8.91296 41.283 8.79309 41.7684 8.79298 42.2613C8.79298 42.2708 8.79571 42.2794 8.79578 42.2889C8.36186 42.2232 7.91829 42.271 7.50839 42.4276C7.4519 42.1874 7.34723 41.9611 7.20069 41.7623C7.05415 41.5636 6.86879 41.3966 6.65579 41.2713C6.44279 41.1461 6.20657 41.0652 5.9614 41.0336C5.71622 41.002 5.46717 41.0203 5.22928 41.0874C4.99139 41.1546 4.76959 41.2691 4.57728 41.4241C4.38496 41.5792 4.22611 41.7715 4.11032 41.9895C3.99454 42.2075 3.92421 42.4467 3.90359 42.6926C3.88296 42.9385 3.91247 43.186 3.99034 43.4202C3.40017 43.8189 2.9687 44.4116 2.77098 45.095C2.57326 45.7784 2.62179 46.5094 2.90814 47.1608C3.19448 47.8122 3.70053 48.3428 4.33826 48.6604C4.97599 48.9779 5.70506 49.0623 6.39868 48.8989C6.50913 49.5361 6.82011 50.1217 7.28649 50.5706C7.75288 51.0195 8.35043 51.3085 8.99246 51.3955C9.63449 51.4826 10.2876 51.3632 10.8571 51.0548C11.4266 50.7463 11.8828 50.2648 12.1595 49.68C12.4102 50.2094 12.8085 50.6553 13.3066 50.9644C13.8048 51.2735 14.3817 51.4327 14.9682 51.4228C15.5547 51.4129 16.1259 51.2344 16.6133 50.9087C17.1007 50.583 17.4837 50.1238 17.7163 49.5864C18.0769 49.5813 18.4337 49.5124 18.7701 49.3827C18.9724 49.9613 19.3449 50.4654 19.839 50.8292C20.3331 51.1929 20.9257 51.3993 21.5392 51.4213C22.1527 51.4433 22.7586 51.2799 23.2776 50.9525C23.7965 50.6251 24.2044 50.1489 24.4477 49.5864C24.8939 49.5775 25.3324 49.4692 25.7312 49.2694C26.0104 49.762 26.4219 50.167 26.9193 50.4389C27.4167 50.7107 27.9802 50.8385 28.5464 50.808C29.1127 50.7775 29.6591 50.5898 30.1242 50.266C30.5894 49.9423 30.9547 49.4953 31.1791 48.9756C31.3433 48.9716 31.5069 48.9545 31.6684 48.9245C31.8974 49.4787 32.2849 49.9534 32.7825 50.2891C33.2802 50.6249 33.8659 50.8068 34.4665 50.8123C35.0672 50.8177 35.6561 50.6464 36.1598 50.3198C36.6635 49.9931 37.0596 49.5256 37.2986 48.9756C37.5389 48.9688 37.7776 48.9337 38.0097 48.8709C38.6247 49.042 39.2784 49.0116 39.8749 48.7843C40.4713 48.5569 40.9789 48.1446 41.3231 47.6079C41.1308 48.3517 41.2265 49.1405 41.5911 49.8169C41.9558 50.4934 42.5625 51.0077 43.2903 51.2574C44.0181 51.5071 44.8134 51.4738 45.5176 51.164C46.2219 50.8543 46.7833 50.2909 47.0897 49.5864C47.5359 49.5775 47.9744 49.4692 48.3733 49.2694C48.6525 49.762 49.0639 50.167 49.5613 50.4389C50.0587 50.7107 50.6222 50.8385 51.1885 50.808C51.7547 50.7775 52.3011 50.5898 52.7663 50.266C53.2314 49.9423 53.5967 49.4953 53.8212 48.9756C54.2673 48.9667 54.7059 48.8584 55.1047 48.6586C55.3199 49.0413 55.616 49.3727 55.9725 49.6296C56.329 49.8865 56.7373 50.0629 57.169 50.1464C57.6007 50.2299 58.0454 50.2186 58.4723 50.1132C58.8991 50.0078 59.2978 49.8109 59.6407 49.5361C59.747 50.1204 60.0223 50.6608 60.4327 51.0908C60.8431 51.5207 61.3706 51.8213 61.9502 51.9554C62.5298 52.0896 63.136 52.0514 63.6941 51.8456C64.2522 51.6399 64.7378 51.2755 65.0908 50.7976C65.4581 51.0785 65.8847 51.272 66.3383 51.3633C66.7919 51.4547 67.2603 51.4414 67.708 51.3246C68.1557 51.2078 68.5707 50.9904 68.9214 50.6892C69.2721 50.388 69.5493 50.0108 69.7318 49.5864C71.229 49.5621 72.4355 48.4818 72.4355 47.1476C72.4354 45.7983 71.2026 44.7045 69.6817 44.7045ZM14.987 43.4439C14.9838 43.4586 14.9816 43.4737 14.9785 43.4885C14.9562 43.4877 14.935 43.4829 14.9125 43.4829C14.821 43.4852 14.7299 43.4944 14.6398 43.5103C14.6448 43.4993 14.6517 43.4895 14.6566 43.4784C14.7673 43.4729 14.8776 43.4614 14.987 43.4439V43.4439ZM40.5535 42.4276C40.5446 42.392 40.5293 42.3593 40.5184 42.3246C40.9856 42.0013 41.3539 41.5549 41.5822 41.0352C41.9846 41.0331 42.3821 40.9464 42.7487 40.7807C43.1153 40.615 43.4428 40.3741 43.7098 40.0736C43.6863 40.1906 43.6743 40.3096 43.674 40.4289C43.6765 40.6153 43.7078 40.8002 43.7669 40.977C43.2415 41.3426 42.8437 41.8631 42.6293 42.4655C41.9639 42.2069 41.228 42.1935 40.5535 42.4276V42.4276ZM58.8816 42.6553C58.8803 42.6179 58.885 42.5793 58.8825 42.5422C58.9605 42.5419 59.0384 42.5366 59.1157 42.5263C59.2344 42.9215 59.4328 43.2883 59.6987 43.6042C59.6409 43.6204 59.5801 43.6301 59.5239 43.6492C59.425 43.2564 59.1993 42.9071 58.8816 42.6553V42.6553Z" fill="#F9A825"/>
<path d="M6.38985 48.3694C5.52184 48.3693 4.66292 48.5458 3.8655 48.888C3.06808 49.2302 2.34888 49.731 1.7518 50.3599C1.15471 50.9887 0.69226 51.7324 0.39266 52.5455C0.0930602 53.3587 -0.0374049 54.2242 0.00922751 55.0893L4.15301 111.964C4.24039 113.594 4.95075 115.128 6.13778 116.251C7.32482 117.374 8.89812 118 10.5336 118H63.963C65.5985 118 67.1719 117.374 68.3589 116.251C69.5459 115.128 70.2563 113.594 70.3436 111.964L74.4874 55.0893C74.5341 54.2242 74.4036 53.3587 74.104 52.5455C73.8044 51.7324 73.342 50.9887 72.7449 50.3599C72.1478 49.731 71.4286 49.2302 70.6312 48.888C69.8337 48.5458 68.9748 48.3693 68.1068 48.3694H6.38985Z" fill="#3F3D56"/>
<path d="M13.077 48.3694H9.40527V118H13.077V48.3694Z" fill="#6C63FF"/>
<path d="M23.4798 48.3694H19.8081V118H23.4798V48.3694Z" fill="#6C63FF"/>
<path d="M33.8826 48.3694H30.2109V118H33.8826V48.3694Z" fill="#6C63FF"/>
<path d="M44.2859 48.3694H40.6143V118H44.2859V48.3694Z" fill="#6C63FF"/>
<path d="M54.6888 48.3694H51.0171V118H54.6888V48.3694Z" fill="#6C63FF"/>
<path d="M65.0921 48.3694H61.4204V118H65.0921V48.3694Z" fill="#6C63FF"/>
<path d="M124.995 19.8233L123.394 15.9321L102.053 24.6773C101.569 24.8756 101.156 25.2127 100.865 25.6459C100.574 26.0791 100.419 26.5887 100.419 27.1102V50.1247H104.634V28.1721L124.995 19.8233Z" fill="#3F3D56"/>
<path d="M122.252 11.7036H117.656V26.2325H122.252V11.7036Z" fill="#6C63FF"/>
<path d="M114.975 14.762H110.379V29.2908H114.975V14.762Z" fill="#6C63FF"/>
<path d="M107.887 27.1883L104.632 28.144L103.292 12.6594H107.887V27.1883Z" fill="#6C63FF"/>
<path d="M110.568 28.9084H96.0122V33.4958H110.568V28.9084Z" fill="#6C63FF"/>
<path d="M110.571 35.2183H96.0146V39.8056H110.571V35.2183Z" fill="#6C63FF"/>
<path d="M110.568 41.5283H96.0122V46.1156H110.568V41.5283Z" fill="#6C63FF"/>
<path d="M117.656 118H89.5013L82.605 49.1738H123.787L117.656 118Z" fill="#3F3D56"/>
<path d="M126.851 48.0269H79.7324V52.6142H126.851V48.0269Z" fill="#3F3D56"/>
<path d="M172.006 97.8838C171.821 97.884 171.644 97.9572 171.514 98.0874C171.383 98.2176 171.309 98.3942 171.309 98.5785V117.305C171.309 117.49 171.383 117.666 171.514 117.796C171.644 117.927 171.821 118 172.006 118H204.304C204.488 118 204.665 117.927 204.796 117.796C204.926 117.666 205 117.49 205 117.305V98.5785C205 98.3942 204.926 98.2176 204.796 98.0874C204.665 97.9572 204.488 97.884 204.304 97.8838H172.006Z" fill="#3F3D56"/>
<path d="M175.615 99.5352C175.271 99.5356 174.941 99.6721 174.698 99.9149C174.455 100.158 174.318 100.487 174.317 100.83V115.053C174.318 115.397 174.455 115.726 174.698 115.969C174.941 116.211 175.271 116.348 175.615 116.348H200.694C201.038 116.348 201.368 116.211 201.611 115.969C201.854 115.726 201.991 115.397 201.992 115.053V100.83C201.991 100.487 201.854 100.158 201.611 99.9149C201.368 99.6721 201.038 99.5356 200.694 99.5352L175.615 99.5352Z" fill="#FF6584"/>
<path d="M172.368 104.052H155.544V107.942H172.368V104.052Z" fill="#3F3D56"/>
<path d="M126.269 97.8838C126.085 97.8841 125.908 97.9574 125.777 98.0876C125.647 98.2178 125.574 98.3943 125.573 98.5785V117.305C125.574 117.489 125.647 117.666 125.777 117.796C125.908 117.926 126.085 118 126.269 118H158.568C158.752 118 158.929 117.926 159.06 117.796C159.19 117.666 159.263 117.489 159.264 117.305V98.5785C159.263 98.3943 159.19 98.2178 159.06 98.0876C158.929 97.9574 158.752 97.8841 158.568 97.8838H126.269Z" fill="#3F3D56"/>
<path d="M129.879 99.5352C129.535 99.5354 129.205 99.6719 128.962 99.9147C128.718 100.158 128.581 100.487 128.581 100.83V115.053C128.581 115.397 128.718 115.726 128.962 115.969C129.205 116.212 129.535 116.348 129.879 116.348H154.958C155.302 116.348 155.632 116.212 155.875 115.969C156.118 115.726 156.255 115.397 156.256 115.053V100.83C156.255 100.487 156.118 100.158 155.875 99.9147C155.632 99.6719 155.302 99.5354 154.958 99.5352L129.879 99.5352Z" fill="#6C63FF"/>
</g>
<defs>
<clipPath id="clip0">
<rect width="205" height="118" fill="white"/>
</clipPath>
</defs>
</svg>
